<svg width="16" height="16" viewBox="0 0 16 16" fill="none" xmlns="http://www.w3.org/2000/svg">
<path d="M3.99821 5.99715H2.99856C2.55669 5.99715 2.13292 5.82161 1.82047 5.50917C1.50802 5.19672 1.33249 4.77294 1.33249 4.33107C1.33249 3.8892 1.50802 3.46543 1.82047 3.15298C2.13292 2.84053 2.55669 2.665 2.99856 2.665H3.99821" stroke="white" stroke-opacity="0.7" stroke-width="1.3325" stroke-linecap="round" stroke-linejoin="round"/>
<path d="M11.9925 5.99715H12.9921C13.434 5.99715 13.8578 5.82161 14.1702 5.50917C14.4827 5.19672 14.6582 4.77294 14.6582 4.33107C14.6582 3.8892 14.4827 3.46543 14.1702 3.15298C13.8578 2.84053 13.434 2.665 12.9921 2.665H11.9925" stroke="white" stroke-opacity="0.7" stroke-width="1.3325" stroke-linecap="round" stroke-linejoin="round"/>
<path d="M2.66501 14.6575H13.325" stroke="white" stroke-opacity="0.7" stroke-width="1.3325" stroke-linecap="round" stroke-linejoin="round"/>
<path d="M6.66251 9.76723V11.3263C6.66251 11.6927 6.34937 11.9792 6.01624 12.1324C5.23007 12.4922 4.66376 13.4849 4.66376 14.6575" stroke="white" stroke-opacity="0.7" stroke-width="1.3325" stroke-linecap="round" stroke-linejoin="round"/>
<path d="M9.32751 9.76723V11.3263C9.32751 11.6927 9.64065 11.9792 9.97378 12.1324C10.76 12.4922 11.3263 13.4849 11.3263 14.6575" stroke="white" stroke-opacity="0.7" stroke-width="1.3325" stroke-linecap="round" stroke-linejoin="round"/>
<path d="M11.9925 1.3325H3.9975V5.99625C3.9975 7.05645 4.41866 8.07323 5.16834 8.82291C5.91801 9.57258 6.93479 9.99375 7.995 9.99375C9.0552 9.99375 10.072 9.57258 10.8217 8.82291C11.5713 8.07323 11.9925 7.05645 11.9925 5.99625V1.3325Z" stroke="white" stroke-opacity="0.7" stroke-width="1.3325" stroke-linecap="round" stroke-linejoin="round"/>
</svg>
