<svg width="17" height="17" viewBox="0 0 17 17" fill="none" xmlns="http://www.w3.org/2000/svg">
<path d="M13.6834 5.50325H3.01676C2.64857 5.50325 2.3501 5.80173 2.3501 6.16992V7.50325C2.3501 7.87144 2.64857 8.16992 3.01676 8.16992H13.6834C14.0516 8.16992 14.3501 7.87144 14.3501 7.50325V6.16992C14.3501 5.80173 14.0516 5.50325 13.6834 5.50325Z" stroke="white" stroke-width="1.33333" stroke-linecap="round" stroke-linejoin="round"/>
<path d="M8.3501 5.50325V14.1699" stroke="white" stroke-width="1.33333" stroke-linecap="round" stroke-linejoin="round"/>
<path d="M13.0168 8.16992V12.8366C13.0168 13.1902 12.8763 13.5293 12.6263 13.7794C12.3762 14.0294 12.0371 14.1699 11.6835 14.1699H5.01681C4.66318 14.1699 4.32404 14.0294 4.074 13.7794C3.82395 13.5293 3.68347 13.1902 3.68347 12.8366V8.16992" stroke="white" stroke-width="1.33333" stroke-linecap="round" stroke-linejoin="round"/>
<path d="M5.35014 5.50326C4.90811 5.50326 4.48419 5.32766 4.17163 5.0151C3.85907 4.70254 3.68347 4.27862 3.68347 3.83659C3.68347 3.39456 3.85907 2.97064 4.17163 2.65808C4.48419 2.34552 4.90811 2.16992 5.35014 2.16992C5.99326 2.15872 6.62349 2.47076 7.15863 3.06536C7.69377 3.65996 8.10899 4.50953 8.35014 5.50326C8.59129 4.50953 9.00651 3.65996 9.54165 3.06536C10.0768 2.47076 10.707 2.15872 11.3501 2.16992C11.7922 2.16992 12.2161 2.34552 12.5286 2.65808C12.8412 2.97064 13.0168 3.39456 13.0168 3.83659C13.0168 4.27862 12.8412 4.70254 12.5286 5.0151C12.2161 5.32766 11.7922 5.50326 11.3501 5.50326" stroke="white" stroke-width="1.33333" stroke-linecap="round" stroke-linejoin="round"/>
</svg>
