<svg width="25" height="25" viewBox="0 0 25 25" fill="none" xmlns="http://www.w3.org/2000/svg">
<path d="M15.7312 12.9546L17.2457 21.4775C17.2626 21.5779 17.2485 21.681 17.2053 21.7732C17.1621 21.8653 17.0917 21.9421 17.0037 21.9932C16.9156 22.0442 16.8141 22.0672 16.7127 22.059C16.6112 22.0509 16.5147 22.0119 16.4359 21.9474L12.8572 19.2613C12.6845 19.1323 12.4746 19.0625 12.2589 19.0625C12.0433 19.0625 11.8334 19.1323 11.6606 19.2613L8.07591 21.9464C7.99726 22.0108 7.90083 22.0497 7.7995 22.0579C7.69817 22.0661 7.59675 22.0432 7.50877 21.9922C7.42079 21.9413 7.35044 21.8647 7.3071 21.7728C7.26376 21.6808 7.24949 21.5778 7.2662 21.4775L8.77966 12.9546" stroke="#C084FC" stroke-width="1.99917" stroke-linecap="round" stroke-linejoin="round"/>
<path d="M12.2556 14.0648C15.5681 14.0648 18.2534 11.3795 18.2534 8.06697C18.2534 4.75443 15.5681 2.06909 12.2556 2.06909C8.94303 2.06909 6.25769 4.75443 6.25769 8.06697C6.25769 11.3795 8.94303 14.0648 12.2556 14.0648Z" stroke="#C084FC" stroke-width="1.99917" stroke-linecap="round" stroke-linejoin="round"/>
</svg>
